<?xml version="1.0" encoding="UTF-8" standalone="no"?>
<!DOCTYPE svg PUBLIC "-//W3C//DTD SVG 1.1//EN" "http://www.w3.org/Graphics/SVG/1.1/DTD/svg11.dtd">
<svg width="100%" height="100%" viewBox="0 0 1080 1080" version="1.1" xmlns="http://www.w3.org/2000/svg" xmlns:xlink="http://www.w3.org/1999/xlink" xml:space="preserve" xmlns:serif="http://www.serif.com/" style="fill-rule:evenodd;clip-rule:evenodd;stroke-linejoin:round;stroke-miterlimit:2;">
    <g transform="matrix(1,0,0,1,-2576,0)">
        <g id="Artboard3" transform="matrix(1,0,0,1,-0.333333,0)">
            <rect x="2576.33" y="0" width="1080" height="1080" style="fill:none;"/>
            <g transform="matrix(1.38762,0,0,1.38762,-1245.75,9.67587)">
                <g transform="matrix(1,0,0,1,2576.33,0)">
                    <path d="M411.24,447.549L327.705,447.549C327.429,447.549 327.205,447.772 327.205,448.048L327.205,642.811C327.205,643.088 327.429,643.311 327.705,643.311L411.24,643.311C411.517,643.311 411.74,643.088 411.74,642.811L411.74,448.048C411.74,447.772 411.517,447.549 411.24,447.549Z" style="fill:rgb(248,175,65);fill-rule:nonzero;"/>
                </g>
                <g transform="matrix(1,0,0,1,2576.33,0)">
                    <path d="M674.915,507.16L591.378,507.16C591.102,507.16 590.878,507.383 590.878,507.66L590.878,642.811C590.878,643.088 591.102,643.311 591.378,643.311L674.915,643.311C675.191,643.311 675.415,643.088 675.415,642.811L675.415,507.66C675.415,507.383 675.191,507.16 674.915,507.16Z" style="fill:rgb(242,106,86);fill-rule:nonzero;"/>
                </g>
                <g transform="matrix(1,0,0,1,2576.33,0)">
                    <path d="M543.077,333.817L459.542,333.817C459.265,333.817 459.042,334.041 459.042,334.317L459.042,642.811C459.042,643.088 459.265,643.311 459.542,643.311L543.077,643.311C543.353,643.311 543.577,643.088 543.577,642.811L543.577,334.317C543.577,334.041 543.353,333.817 543.077,333.817Z" style="fill:rgb(134,236,84);fill-rule:nonzero;"/>
                </g>
                <g transform="matrix(1,0,0,1,2576.33,0)">
                    <path d="M806.751,256.815L723.216,256.815C722.939,256.815 722.715,257.039 722.715,257.315L722.715,642.811C722.715,643.088 722.939,643.311 723.216,643.311L806.751,643.311C807.027,643.311 807.251,643.088 807.251,642.811L807.251,257.315C807.251,257.039 807.027,256.815 806.751,256.815Z" style="fill:rgb(3,97,175);fill-rule:nonzero;"/>
                </g>
                <g transform="matrix(1,0,0,1,2576.33,0)">
                    <path d="M366.871,323.333C366.139,323.333 365.415,323.013 364.92,322.399C364.056,321.323 364.227,319.75 365.303,318.885L500.34,210.337L633.552,303.253L764.665,142.422C765.537,141.353 767.109,141.189 768.182,142.064C769.251,142.936 769.413,144.511 768.54,145.582L634.497,310.007L500.553,216.581L368.436,322.781C367.974,323.152 367.42,323.333 366.871,323.333Z" style="fill:rgb(82,114,117);fill-rule:nonzero;"/>
                </g>
                <g transform="matrix(1,0,0,1,2576.33,0)">
                    <path d="M523.396,213.459C523.396,226.134 513.122,236.409 500.447,236.409C487.772,236.409 477.497,226.134 477.497,213.459C477.497,200.784 487.772,190.509 500.447,190.509C513.122,190.509 523.396,200.784 523.396,213.459Z" style="fill:rgb(134,236,84);fill-rule:nonzero;"/>
                </g>
                <g transform="matrix(1,0,0,1,2576.33,0)">
                    <path d="M656.974,306.63C656.974,319.305 646.699,329.58 634.024,329.58C621.349,329.58 611.074,319.305 611.074,306.63C611.074,293.955 621.349,283.68 634.024,283.68C646.699,283.68 656.974,293.955 656.974,306.63Z" style="fill:rgb(242,106,86);fill-rule:nonzero;"/>
                </g>
                <g transform="matrix(1,0,0,1,2576.33,0)">
                    <path d="M789.552,144.002C789.552,156.677 779.277,166.952 766.602,166.952C753.927,166.952 743.652,156.677 743.652,144.002C743.652,131.327 753.927,121.052 766.602,121.052C779.277,121.052 789.552,131.327 789.552,144.002Z" style="fill:rgb(3,97,175);fill-rule:nonzero;"/>
                </g>
                <g transform="matrix(1,0,0,1,2576.33,0)">
                    <path d="M389.819,320.833C389.819,333.508 379.544,343.783 366.869,343.783C354.194,343.783 343.919,333.508 343.919,320.833C343.919,308.158 354.194,297.883 366.869,297.883C379.544,297.883 389.819,308.158 389.819,320.833Z" style="fill:rgb(248,175,65);fill-rule:nonzero;"/>
                </g>
            </g>
        </g>
    </g>
</svg>
