<?xml version="1.0" encoding="UTF-8" standalone="no"?>
<!DOCTYPE svg PUBLIC "-//W3C//DTD SVG 1.1//EN" "http://www.w3.org/Graphics/SVG/1.1/DTD/svg11.dtd">
<svg width="100%" height="100%" viewBox="0 0 512 512" version="1.1" xmlns="http://www.w3.org/2000/svg" xmlns:xlink="http://www.w3.org/1999/xlink" xml:space="preserve" xmlns:serif="http://www.serif.com/" style="fill-rule:evenodd;clip-rule:evenodd;stroke-linejoin:round;stroke-miterlimit:2;">
    <path d="M277.332,128C277.332,139.781 267.781,149.332 256,149.332C244.219,149.332 234.668,139.781 234.668,128C234.668,116.219 244.219,106.668 256,106.668C267.781,106.668 277.332,116.219 277.332,128Z" style="fill:rgb(54,65,183);fill-rule:nonzero;"/>
    <path d="M256,405.332C247.168,405.332 240,398.164 240,389.332L240,224L218.668,224C209.836,224 202.668,216.832 202.668,208C202.668,199.168 209.836,192 218.668,192L256,192C264.832,192 272,199.168 272,208L272,389.332C272,398.164 264.832,405.332 256,405.332Z" style="fill:rgb(54,65,183);fill-rule:nonzero;"/>
    <path d="M256,512C114.836,512 0,397.164 0,256C0,114.836 114.836,0 256,0C397.164,0 512,114.836 512,256C512,397.164 397.164,512 256,512ZM256,32C132.48,32 32,132.48 32,256C32,379.52 132.48,480 256,480C379.52,480 480,379.52 480,256C480,132.48 379.52,32 256,32Z" style="fill:rgb(54,65,183);fill-rule:nonzero;"/>
    <path d="M304,405.332L208,405.332C199.168,405.332 192,398.164 192,389.332C192,380.5 199.168,373.332 208,373.332L304,373.332C312.832,373.332 320,380.5 320,389.332C320,398.164 312.832,405.332 304,405.332Z" style="fill:rgb(54,65,183);fill-rule:nonzero;"/>
</svg>
