<?xml version="1.0" encoding="UTF-8" standalone="no"?>
<!DOCTYPE svg PUBLIC "-//W3C//DTD SVG 1.1//EN" "http://www.w3.org/Graphics/SVG/1.1/DTD/svg11.dtd">
<svg width="100%" height="100%" viewBox="0 0 1080 1080" version="1.1" xmlns="http://www.w3.org/2000/svg" xmlns:xlink="http://www.w3.org/1999/xlink" xml:space="preserve" xmlns:serif="http://www.serif.com/" style="fill-rule:evenodd;clip-rule:evenodd;stroke-linejoin:round;stroke-miterlimit:2;">
    <g transform="matrix(1,0,0,1,-1288,0)">
        <g id="Artboard2" transform="matrix(1,0,0,1,-0.333333,0)">
            <rect x="1288.33" y="0" width="1080" height="1080" style="fill:none;"/>
            <g transform="matrix(2.93846,0,0,2.93846,1271.03,-190.878)">
                <path d="M283.74,396.595L95.579,396.595C90.361,396.595 86.13,392.365 86.13,387.146L86.13,131.997C86.13,126.778 90.361,122.548 95.579,122.548L283.74,122.548C288.958,122.548 293.189,126.778 293.189,131.997L293.189,387.146C293.189,392.365 288.958,396.595 283.74,396.595Z" style="fill:rgb(80,156,213);fill-rule:nonzero;"/>
                <path d="M86.13,189.31L86.13,387.146C86.13,392.365 90.361,396.595 95.579,396.595L283.74,396.595C288.958,396.595 293.189,392.365 293.189,387.146L293.189,348.101L86.13,189.31Z" style="fill:rgb(64,120,188);fill-rule:nonzero;"/>
                <path d="M277.297,383.951L102.023,383.951C99.89,383.951 98.161,382.222 98.161,380.089L98.161,139.054C98.161,136.921 99.89,135.192 102.023,135.192L277.297,135.192C279.429,135.192 281.158,136.921 281.158,139.054L281.158,380.089C281.158,382.222 279.429,383.951 277.297,383.951Z" style="fill:rgb(237,239,242);fill-rule:nonzero;"/>
                <path d="M205.356,117.372C205.369,117.114 205.396,116.859 205.396,116.597C205.396,107.907 198.35,100.861 189.66,100.861C180.969,100.861 173.924,107.907 173.924,116.597C173.924,116.859 173.951,117.114 173.963,117.372L150.83,117.372L150.83,141.36L228.49,141.36L228.49,117.372L205.356,117.372Z" style="fill:rgb(3,97,175);fill-rule:nonzero;"/>
                <path d="M150.83,117.372L150.83,141.36L228.49,141.36L150.83,117.372Z" style="fill:rgb(8,112,185);fill-rule:nonzero;"/>
                <path d="M198.496,116.597C198.496,121.477 194.54,125.433 189.66,125.433C184.78,125.433 180.824,121.477 180.824,116.597C180.824,111.717 184.78,107.761 189.66,107.761C194.54,107.761 198.496,111.717 198.496,116.597Z" style="fill:rgb(64,120,188);fill-rule:nonzero;"/>
                <path d="M183.412,110.349C179.961,113.8 179.961,119.395 183.412,122.845C186.862,126.296 192.457,126.296 195.908,122.845L183.412,110.349Z" style="fill:rgb(80,156,213);fill-rule:nonzero;"/>
                <rect x="150.83" y="141.36" width="77.66" height="1.652" style="fill:rgb(172,210,238);fill-rule:nonzero;"/>
                <path d="M148.762,204.036L148.762,203.536L119.807,203.536L119.807,175.081L148.262,175.081L148.262,204.036L148.762,204.036L148.762,203.536L148.762,204.036L149.262,204.036L149.262,174.081L118.807,174.081L118.807,204.536L149.262,204.536L149.262,204.036L148.762,204.036Z" style="fill:rgb(3,97,175);fill-rule:nonzero;"/>
                <path d="M126.691,192.388L137.068,200.535L156.636,181.683L153.86,178.802L136.8,195.239L129.162,189.242L126.691,192.388Z" style="fill:rgb(237,239,242);fill-rule:nonzero;"/>
                <path d="M124.691,190.388L135.068,198.535L154.636,179.683L151.86,176.802L134.8,193.239L127.162,187.242L124.691,190.388Z" style="fill:rgb(243,116,117);fill-rule:nonzero;"/>
                <path d="M258.877,182.942L162.9,182.942C162.274,182.942 161.767,182.434 161.767,181.808C161.767,181.182 162.274,180.674 162.9,180.674L258.877,180.674C259.505,180.674 260.012,181.182 260.012,181.808C260.012,182.434 259.505,182.942 258.877,182.942Z" style="fill:rgb(80,156,213);fill-rule:nonzero;"/>
                <path d="M258.877,187.942L162.9,187.942C162.274,187.942 161.767,187.434 161.767,186.808C161.767,186.182 162.274,185.675 162.9,185.675L258.877,185.675C259.505,185.675 260.012,186.182 260.012,186.808C260.012,187.434 259.505,187.942 258.877,187.942Z" style="fill:rgb(80,156,213);fill-rule:nonzero;"/>
                <path d="M258.877,192.942L162.9,192.942C162.274,192.942 161.767,192.435 161.767,191.809C161.767,191.182 162.274,190.675 162.9,190.675L258.877,190.675C259.505,190.675 260.012,191.182 260.012,191.809C260.012,192.435 259.505,192.942 258.877,192.942Z" style="fill:rgb(80,156,213);fill-rule:nonzero;"/>
                <path d="M258.877,197.942L162.9,197.942C162.274,197.942 161.767,197.435 161.767,196.809C161.767,196.183 162.274,195.675 162.9,195.675L258.877,195.675C259.505,195.675 260.012,196.183 260.012,196.809C260.012,197.435 259.505,197.942 258.877,197.942Z" style="fill:rgb(80,156,213);fill-rule:nonzero;"/>
                <path d="M148.762,251.454L148.762,250.954L119.807,250.954L119.807,222.5L148.262,222.5L148.262,251.454L148.762,251.454L148.762,250.954L148.762,251.454L149.262,251.454L149.262,221.5L118.807,221.5L118.807,251.954L149.262,251.954L149.262,251.454L148.762,251.454Z" style="fill:rgb(3,97,175);fill-rule:nonzero;"/>
                <path d="M126.691,239.807L137.068,247.953L156.636,229.101L153.86,226.221L136.8,242.657L129.162,236.66L126.691,239.807Z" style="fill:rgb(237,239,242);fill-rule:nonzero;"/>
                <path d="M124.691,237.807L135.068,245.953L154.636,227.101L151.86,224.221L134.8,240.657L127.162,234.66L124.691,237.807Z" style="fill:rgb(243,116,117);fill-rule:nonzero;"/>
                <path d="M258.877,230.36L162.9,230.36C162.274,230.36 161.767,229.853 161.767,229.227C161.767,228.601 162.274,228.093 162.9,228.093L258.877,228.093C259.505,228.093 260.012,228.601 260.012,229.227C260.012,229.853 259.505,230.36 258.877,230.36Z" style="fill:rgb(80,156,213);fill-rule:nonzero;"/>
                <path d="M258.877,235.361L162.9,235.361C162.274,235.361 161.767,234.853 161.767,234.227C161.767,233.601 162.274,233.093 162.9,233.093L258.877,233.093C259.505,233.093 260.012,233.601 260.012,234.227C260.012,234.853 259.505,235.361 258.877,235.361Z" style="fill:rgb(80,156,213);fill-rule:nonzero;"/>
                <path d="M258.877,240.361L162.9,240.361C162.274,240.361 161.767,239.853 161.767,239.227C161.767,238.601 162.274,238.093 162.9,238.093L258.877,238.093C259.505,238.093 260.012,238.601 260.012,239.227C260.012,239.853 259.505,240.361 258.877,240.361Z" style="fill:rgb(80,156,213);fill-rule:nonzero;"/>
                <path d="M258.877,245.361L162.9,245.361C162.274,245.361 161.767,244.853 161.767,244.227C161.767,243.601 162.274,243.094 162.9,243.094L258.877,243.094C259.505,243.094 260.012,243.601 260.012,244.227C260.012,244.853 259.505,245.361 258.877,245.361Z" style="fill:rgb(80,156,213);fill-rule:nonzero;"/>
                <path d="M148.762,298.873L148.762,298.373L119.807,298.373L119.807,269.918L148.262,269.918L148.262,298.873L148.762,298.873L148.762,298.373L148.762,298.873L149.262,298.873L149.262,268.918L118.807,268.918L118.807,299.373L149.262,299.373L149.262,298.873L148.762,298.873Z" style="fill:rgb(3,97,175);fill-rule:nonzero;"/>
                <path d="M126.691,287.225L137.068,295.372L156.636,276.52L153.86,273.639L136.8,290.076L129.162,284.079L126.691,287.225Z" style="fill:rgb(237,239,242);fill-rule:nonzero;"/>
                <path d="M124.691,285.225L135.068,293.372L154.636,274.52L151.86,271.639L134.8,288.076L127.162,282.079L124.691,285.225Z" style="fill:rgb(243,116,117);fill-rule:nonzero;"/>
                <path d="M258.877,277.779L162.9,277.779C162.274,277.779 161.767,277.271 161.767,276.645C161.767,276.019 162.274,275.511 162.9,275.511L258.877,275.511C259.505,275.511 260.012,276.019 260.012,276.645C260.012,277.271 259.505,277.779 258.877,277.779Z" style="fill:rgb(80,156,213);fill-rule:nonzero;"/>
                <path d="M258.877,282.779L162.9,282.779C162.274,282.779 161.767,282.271 161.767,281.645C161.767,281.019 162.274,280.512 162.9,280.512L258.877,280.512C259.505,280.512 260.012,281.019 260.012,281.645C260.012,282.271 259.505,282.779 258.877,282.779Z" style="fill:rgb(80,156,213);fill-rule:nonzero;"/>
                <path d="M258.877,287.779L162.9,287.779C162.274,287.779 161.767,287.272 161.767,286.646C161.767,286.019 162.274,285.512 162.9,285.512L258.877,285.512C259.505,285.512 260.012,286.019 260.012,286.646C260.012,287.272 259.505,287.779 258.877,287.779Z" style="fill:rgb(80,156,213);fill-rule:nonzero;"/>
                <path d="M258.877,292.779L162.9,292.779C162.274,292.779 161.767,292.272 161.767,291.646C161.767,291.02 162.274,290.512 162.9,290.512L258.877,290.512C259.505,290.512 260.012,291.02 260.012,291.646C260.012,292.272 259.505,292.779 258.877,292.779Z" style="fill:rgb(80,156,213);fill-rule:nonzero;"/>
                <path d="M148.762,346.291L148.762,345.791L119.807,345.791L119.807,317.337L148.262,317.337L148.262,346.291L148.762,346.291L148.762,345.791L148.762,346.291L149.262,346.291L149.262,316.337L118.807,316.337L118.807,346.791L149.262,346.791L149.262,346.291L148.762,346.291Z" style="fill:rgb(3,97,175);fill-rule:nonzero;"/>
                <path d="M126.691,334.644L137.068,342.79L156.636,323.938L153.86,321.058L136.8,337.494L129.162,331.497L126.691,334.644Z" style="fill:rgb(237,239,242);fill-rule:nonzero;"/>
                <path d="M124.691,332.644L135.068,340.79L154.636,321.938L151.86,319.058L134.8,335.494L127.162,329.497L124.691,332.644Z" style="fill:rgb(243,116,117);fill-rule:nonzero;"/>
                <path d="M258.877,325.197L162.9,325.197C162.274,325.197 161.767,324.69 161.767,324.064C161.767,323.438 162.274,322.93 162.9,322.93L258.877,322.93C259.505,322.93 260.012,323.438 260.012,324.064C260.012,324.69 259.505,325.197 258.877,325.197Z" style="fill:rgb(80,156,213);fill-rule:nonzero;"/>
                <path d="M258.877,330.198L162.9,330.198C162.274,330.198 161.767,329.69 161.767,329.064C161.767,328.438 162.274,327.93 162.9,327.93L258.877,327.93C259.505,327.93 260.012,328.438 260.012,329.064C260.012,329.69 259.505,330.198 258.877,330.198Z" style="fill:rgb(80,156,213);fill-rule:nonzero;"/>
                <path d="M258.877,335.198L162.9,335.198C162.274,335.198 161.767,334.69 161.767,334.064C161.767,333.438 162.274,332.93 162.9,332.93L258.877,332.93C259.505,332.93 260.012,333.438 260.012,334.064C260.012,334.69 259.505,335.198 258.877,335.198Z" style="fill:rgb(80,156,213);fill-rule:nonzero;"/>
                <path d="M258.877,340.198L162.9,340.198C162.274,340.198 161.767,339.69 161.767,339.064C161.767,338.438 162.274,337.931 162.9,337.931L258.877,337.931C259.505,337.931 260.012,338.438 260.012,339.064C260.012,339.69 259.505,340.198 258.877,340.198Z" style="fill:rgb(80,156,213);fill-rule:nonzero;"/>
            </g>
        </g>
    </g>
</svg>
