<?xml version="1.0" encoding="UTF-8" standalone="no"?>
<!DOCTYPE svg PUBLIC "-//W3C//DTD SVG 1.1//EN" "http://www.w3.org/Graphics/SVG/1.1/DTD/svg11.dtd">
<svg width="100%" height="100%" viewBox="0 0 1080 1080" version="1.1" xmlns="http://www.w3.org/2000/svg" xmlns:xlink="http://www.w3.org/1999/xlink" xml:space="preserve" xmlns:serif="http://www.serif.com/" style="fill-rule:evenodd;clip-rule:evenodd;stroke-linejoin:round;stroke-miterlimit:2;">
    <g transform="matrix(1,0,0,1,-1288,0)">
        <g id="Artboard2" transform="matrix(1,0,0,1,-0.333333,0)">
            <rect x="1288.33" y="0" width="1080" height="1080" style="fill:none;"/>
            <g transform="matrix(6.89428,0,0,6.89428,-700.591,-26.9035)">
                <g transform="matrix(1,0,0,1,64.8669,1.58212)">
                    <path d="M298.837,78.95L306.424,64.075L296.046,46.501L265.558,64.502L275.595,81.5L292.32,82.596L285.165,97.217L295.542,114.791L326.031,96.791L315.994,79.792L298.837,78.95Z" style="fill:rgb(92,230,245);fill-rule:nonzero;"/>
                </g>
                <g transform="matrix(1,0,0,1,64.8669,1.58212)">
                    <path d="M304.046,65.479L300.475,59.428L275.388,74.239L278.62,79.715L295.425,80.954L287.625,96.832L297.486,113.642L323.87,98.066L313.961,81.283L296.028,80.609L304.046,65.479Z" style="fill:rgb(255,218,84);fill-rule:nonzero;"/>
                </g>
                <g transform="matrix(1,0,0,1,64.8669,1.58212)">
                    <path d="M301.749,47.408L263.815,69.804L260.074,63.466L298.007,41.07L301.749,47.408Z" style="fill:rgb(52,63,87);fill-rule:nonzero;"/>
                </g>
                <g transform="matrix(1,0,0,1,64.8669,1.58212)">
                    <path d="M331.515,97.825L293.582,120.221L289.84,113.884L327.774,91.487L331.515,97.825Z" style="fill:rgb(52,63,87);fill-rule:nonzero;"/>
                </g>
                <g transform="matrix(1,0,0,1,64.8669,1.58212)">
                    <path d="M358.791,86.483L344.866,68.275L330.942,86.483L341.26,86.483C338.394,108.498 319.601,125.278 297.018,125.278C272.409,125.278 252.386,105.256 252.386,80.645C252.386,56.035 272.409,36.014 297.018,36.014C304.126,36.014 310.917,37.633 317.206,40.829L320.503,34.337C313.184,30.618 305.283,28.733 297.018,28.733C268.393,28.733 245.105,52.02 245.105,80.645C245.105,109.271 268.393,132.559 297.018,132.559C323.609,132.559 345.687,112.558 348.597,86.483L358.791,86.483Z" style="fill:rgb(52,63,87);fill-rule:nonzero;"/>
                </g>
            </g>
        </g>
    </g>
</svg>
