<?xml version="1.0" encoding="UTF-8" standalone="no"?>
<!DOCTYPE svg PUBLIC "-//W3C//DTD SVG 1.1//EN" "http://www.w3.org/Graphics/SVG/1.1/DTD/svg11.dtd">
<svg width="100%" height="100%" viewBox="0 0 512 512" version="1.1" xmlns="http://www.w3.org/2000/svg" xmlns:xlink="http://www.w3.org/1999/xlink" xml:space="preserve" xmlns:serif="http://www.serif.com/" style="fill-rule:evenodd;clip-rule:evenodd;stroke-linejoin:round;stroke-miterlimit:2;">
    <g transform="matrix(1,0,0,1,0,-581.442)">
        <g transform="matrix(1,0,0,1,0,581.442)">
            <rect id="Artboard1" x="0" y="0" width="512" height="512" style="fill:none;"/>
            <g id="Artboard11" serif:id="Artboard1">
                <path d="M360.085,197.163L314.837,151.915L256,210.752L197.163,151.915L151.915,197.163L210.752,256L151.915,314.837L197.163,360.085L256,301.248L314.837,360.085L360.085,314.837L301.248,256L360.085,197.163Z" style="fill:rgb(160,16,16);fill-rule:nonzero;"/>
                <path d="M256,512C115.563,512 0,396.437 0,256C-0,115.563 115.563,0 256,0C396.437,-0 512,115.563 512,256C511.848,396.38 396.38,511.848 256,512ZM256,64C150.672,64 64,150.672 64,256C64,361.328 150.672,448 256,448C361.328,448 448,361.328 448,256C447.883,150.716 361.284,64.117 256,64Z" style="fill:rgb(160,16,16);fill-rule:nonzero;"/>
            </g>
        </g>
    </g>
</svg>
