<?xml version="1.0" encoding="UTF-8" standalone="no"?>
<!DOCTYPE svg PUBLIC "-//W3C//DTD SVG 1.1//EN" "http://www.w3.org/Graphics/SVG/1.1/DTD/svg11.dtd">
<svg width="100%" height="100%" viewBox="0 0 1080 1080" version="1.1" xmlns="http://www.w3.org/2000/svg" xmlns:xlink="http://www.w3.org/1999/xlink" xml:space="preserve" xmlns:serif="http://www.serif.com/" style="fill-rule:evenodd;clip-rule:evenodd;stroke-linejoin:round;stroke-miterlimit:2;">
    <rect id="Artboard1" x="0" y="0" width="1080" height="1080" style="fill:none;"/>
    <g id="Artboard11" serif:id="Artboard1">
        <g transform="matrix(13.2892,0,0,13.2892,-586.908,-1918.93)">
            <g>
                <path d="M78.357,214.086L78.357,214.083C78.682,213.93 78.886,213.558 78.891,213.012L78.882,206.769C78.882,206.236 78.778,205.758 78.544,205.299C78.76,204.757 79.275,204.391 79.743,204.081C79.936,203.956 81.57,203.005 84.088,201.547C84.205,201.714 84.302,201.883 84.381,202.056C84.587,202.481 84.671,202.925 84.674,203.415L84.676,205.426L84.68,209.65C84.68,210.102 84.541,210.436 84.309,210.626L86.574,209.322C86.804,209.127 86.943,208.795 86.943,208.343L86.94,204.119L86.938,202.109C86.935,201.618 86.85,201.174 86.644,200.748C86.566,200.575 86.469,200.405 86.352,200.239C93.799,195.936 105.876,188.984 113.743,184.456C113.859,184.621 113.955,184.789 114.032,184.96C114.238,185.384 114.322,185.829 114.326,186.319L114.328,188.331L114.332,192.555C114.332,193.002 114.195,193.334 113.966,193.526L78.357,214.086ZM77.927,204.159C77.792,204.159 77.67,204.141 77.562,204.109L77.459,204.092L77.562,204.109C77.358,203.937 77.126,203.763 76.866,203.59L82.669,200.24C83.144,200.558 83.524,200.878 83.818,201.208C81.668,202.416 80.291,203.188 80.108,203.287C79.079,203.867 78.348,204.13 78.011,204.157C77.982,204.158 77.954,204.159 77.927,204.159ZM76.303,203.243C76.252,203.214 76.201,203.185 76.148,203.156L73.958,201.9L72.482,201.536L51.533,189.068L47.47,186.649L53.387,183.232C53.636,183.679 53.994,184.072 54.389,184.291L78.434,197.609L110.73,178.199L110.714,177.327L110.093,177.699L110.093,177.692L110.713,177.319L110.08,176.968L110.006,172.779L117.191,176.929L119.183,178.076L119.378,178.194L119.537,178.282C119.591,178.31 119.64,178.34 119.687,178.371C119.639,178.341 119.589,178.311 119.533,178.282L76.303,203.243ZM86.102,199.924C85.806,199.586 85.42,199.259 84.933,198.932L120.091,178.634C120.093,178.635 120.094,178.635 120.095,178.636C120.428,178.852 120.712,179.067 120.948,179.284C121.273,179.587 121.518,179.891 121.695,180.205C121.771,180.343 121.842,180.48 121.89,180.627C122.048,181 122.106,181.391 122.115,181.814L122.127,188.043C122.115,188.551 121.939,188.905 121.664,189.073L121.664,189.082L117.599,191.429L116.237,192.215C116.46,192.02 116.595,191.691 116.595,191.247L116.592,187.023L116.589,185.013C116.586,184.522 116.501,184.079 116.295,183.653C116.218,183.482 116.123,183.316 116.008,183.152C117.783,182.131 119.22,181.303 120.173,180.755C119.212,181.294 117.765,182.108 115.98,183.112C115.661,182.669 115.198,182.246 114.566,181.827L112.303,183.131C112.922,183.544 113.38,183.96 113.699,184.395C105.695,188.899 93.393,195.824 86.102,199.924Z" style="fill:url(#_Linear1);"/>
                <path d="M72.15,205.641L119.533,178.282C119.634,178.335 119.715,178.39 119.805,178.438C119.91,178.499 120.006,178.563 120.096,178.631L72.261,206.249L72.15,205.641Z" style="fill:rgb(139,0,58);fill-rule:nonzero;"/>
                <path d="M78.891,213.012C78.882,214.043 78.161,214.455 77.262,213.939L47.485,196.771L47.476,196.004L48.047,196.004L48.047,195.994L52.625,196.631L73.958,201.9L76.148,203.156C76.719,203.474 77.188,203.792 77.562,204.109L77.459,204.092C77.505,204.251 77.581,204.4 77.665,204.549C77.861,204.888 78.124,205.224 78.479,205.552C78.498,205.458 78.517,205.373 78.544,205.299C78.778,205.758 78.882,206.236 78.882,206.769L78.891,213.012Z" style="fill:rgb(139,0,58);fill-rule:nonzero;"/>
                <path d="M76.127,212.547L47.489,196.004L47.996,195.71L47.997,195.955L47.993,195.966L52.559,198.612L54.18,199.538L74.971,211.538L75.004,211.558L75.004,211.557L75.005,211.558L75.007,208.024L75.007,207.996L75.003,206.349L75.006,206.351L75.007,205.938L75.006,205.595L75.006,203.46L75.007,203.461L75.008,211.563L76.42,212.379L76.127,212.547Z" style="fill:url(#_Linear2);"/>
                <path d="M75.007,203.335L76.418,204.149L76.42,212.379L75.008,211.563L75.007,203.335Z" style="fill:rgb(198,194,196);fill-rule:nonzero;"/>
                <path d="M75.004,211.558L75,211.52L75.007,207.996L75.003,206.347L75.006,205.936L75.006,203.337L75.008,203.327L48.718,188.143L48.06,187.768L48.03,187.755L47.987,187.731L47.994,187.777L47.988,188.867L47.995,190.743L47.984,192.38L47.99,192.388L47.997,195.955L47.993,195.966L52.559,198.612L54.18,199.538L74.756,211.41L75.004,211.558Z" style="fill:rgb(216,216,216);fill-rule:nonzero;"/>
                <path d="M75.005,211.558L75.004,211.557L75,211.52L75.007,208.024L75.005,211.558ZM74.971,211.538L54.18,199.538L74.756,211.41L74.971,211.538Z" style="fill:url(#_Linear3);"/>
                <path d="M75.004,211.557L74.971,211.538L74.756,211.41L54.18,199.538L53.933,199.389L52.307,198.455L47.997,195.955L47.99,192.388L75.007,208.024L75,211.52L75.004,211.557Z" style="fill:rgb(213,213,214);fill-rule:nonzero;"/>
                <path d="M47.995,190.746L47.986,190.743L47.98,188.867L47.988,188.87L47.995,190.743L47.995,190.746Z" style="fill:rgb(154,213,222);fill-rule:nonzero;"/>
                <path d="M75.006,206.351L75.003,206.349L75.003,206.347L75.006,205.936L75.006,205.595L75.007,205.938L75.006,206.351Z" style="fill:url(#_Linear4);"/>
                <path d="M75.003,206.349L48.051,190.787L47.999,190.747L47.995,190.746L47.995,190.743L47.988,188.87L47.991,188.871L48.056,188.913L75.002,204.463L75.006,205.595L75.006,205.936L75.003,206.347L75.003,206.349Z" style="fill:rgb(213,213,213);fill-rule:nonzero;"/>
                <path d="M47.483,186.634L73.955,201.901L73.958,202.725L47.489,187.445L47.483,186.634Z" style="fill:rgb(139,0,58);fill-rule:nonzero;"/>
                <path d="M84.309,210.626C84.541,210.436 84.68,210.102 84.68,209.65L84.676,205.426L84.674,203.415C84.671,202.925 84.587,202.481 84.381,202.056C84.302,201.883 84.205,201.714 84.088,201.547C84.78,201.147 85.538,200.709 86.352,200.239C86.469,200.405 86.566,200.575 86.644,200.748C86.85,201.174 86.935,201.618 86.938,202.109L86.94,204.119L86.943,208.343C86.943,208.795 86.804,209.127 86.574,209.322L84.309,210.626ZM83.818,201.208C83.524,200.878 83.144,200.558 82.669,200.24C82.663,200.236 82.657,200.232 82.651,200.228L84.915,198.92C84.921,198.924 84.927,198.928 84.933,198.932C85.42,199.259 85.806,199.586 86.102,199.924C85.272,200.391 84.505,200.822 83.818,201.208Z" style="fill:url(#_Linear5);"/>
                <path d="M113.96,193.531C113.962,193.529 113.964,193.528 113.966,193.526C114.195,193.334 114.332,193.002 114.332,192.555L114.328,188.331L114.326,186.319C114.322,185.829 114.238,185.384 114.032,184.96C113.955,184.789 113.859,184.621 113.743,184.456C114.545,183.994 115.303,183.558 116.008,183.152C116.123,183.316 116.218,183.482 116.295,183.653C116.501,184.079 116.586,184.522 116.589,185.013L116.592,187.023L116.595,191.247C116.595,191.691 116.46,192.02 116.237,192.215C116.233,192.218 116.229,192.222 116.225,192.225L113.96,193.531ZM113.699,184.395C113.38,183.96 112.922,183.544 112.303,183.131L114.566,181.827C115.198,182.246 115.661,182.669 115.98,183.112C115.27,183.511 114.506,183.941 113.699,184.395Z" style="fill:url(#_Linear6);"/>
                <path d="M78.544,205.299C78.517,205.373 78.498,205.458 78.479,205.552C78.124,205.224 77.861,204.888 77.665,204.549C77.581,204.4 77.505,204.251 77.459,204.092L77.562,204.109C78.011,204.495 78.339,204.888 78.544,205.299Z" style="fill:rgb(139,0,58);fill-rule:nonzero;"/>
                <path d="M78.544,205.299C78.339,204.888 78.011,204.495 77.562,204.109C77.67,204.141 77.792,204.159 77.927,204.159C77.954,204.159 77.982,204.158 78.011,204.157C78.348,204.13 79.079,203.867 80.108,203.287C80.291,203.188 81.668,202.416 83.818,201.208C83.918,201.32 84.008,201.433 84.088,201.547C81.57,203.005 79.936,203.956 79.743,204.081C79.275,204.391 78.76,204.757 78.544,205.299Z" style="fill:url(#_Linear7);"/>
                <path d="M86.352,200.239C86.277,200.133 86.194,200.028 86.102,199.924C93.393,195.824 105.695,188.899 113.699,184.395C113.714,184.415 113.729,184.436 113.743,184.456C105.876,188.984 93.799,195.936 86.352,200.239ZM116.008,183.152C115.999,183.139 115.99,183.125 115.98,183.112C117.765,182.108 119.212,181.294 120.173,180.755C119.22,181.303 117.783,182.131 116.008,183.152Z" style="fill:url(#_Linear8);"/>
                <path d="M84.088,201.547C84.008,201.433 83.918,201.32 83.818,201.208C84.505,200.822 85.272,200.391 86.102,199.924C86.194,200.028 86.277,200.133 86.352,200.239C85.538,200.709 84.78,201.147 84.088,201.547Z" style="fill:url(#_Linear9);"/>
                <path d="M113.743,184.456C113.729,184.436 113.714,184.415 113.699,184.395C114.506,183.941 115.27,183.511 115.98,183.112C115.99,183.125 115.999,183.139 116.008,183.152C115.303,183.558 114.545,183.994 113.743,184.456Z" style="fill:url(#_Linear10);"/>
                <path d="M86.913,164.13C86.466,163.874 86.115,163.691 85.667,163.96L55.369,182.176L55.41,184.448L78.419,196.73L110.713,177.319L86.913,164.13Z" style="fill:rgb(227,167,79);fill-rule:nonzero;"/>
                <path d="M78.274,188.571L54.871,175.839L54.233,175.485C54.026,175.37 53.83,175.315 53.657,175.315C53.5,175.315 53.361,175.36 53.248,175.445L53.245,175.443L85.527,156.034C85.683,155.94 85.827,155.902 85.968,155.902C86.231,155.902 86.481,156.038 86.771,156.205L110.573,169.393L110.352,169.525L78.274,188.571Z" style="fill:url(#_Linear11);"/>
                <path d="M78.434,197.609L54.389,184.291C53.655,183.884 53.048,182.875 53.034,182.037L52.932,176.267C52.917,175.429 53.5,175.078 54.233,175.485L78.278,188.803L78.434,197.609Z" style="fill:rgb(186,115,2);fill-rule:nonzero;"/>
                <path d="M109.547,170.954L109.671,177.952L110.714,177.327L110.73,178.199L78.434,197.609L78.278,188.803L110.574,169.394L110.591,170.325L109.547,170.954Z" style="fill:rgb(253,170,62);fill-rule:nonzero;"/>
                <path d="M55.193,183.865L53.98,183.193L53.855,176.192L55.068,176.864L55.193,183.865Z" style="fill:rgb(253,170,62);fill-rule:nonzero;"/>
                <path d="M78.294,189.729L55.068,176.864L55.193,183.865L78.419,196.73L78.294,189.729Z" style="fill:rgb(216,216,216);fill-rule:nonzero;"/>
                <path d="M109.969,170.702L110.093,177.7L78.419,196.73L78.294,189.729L109.969,170.702Z" style="fill:rgb(233,233,233);fill-rule:nonzero;"/>
                <path d="M55.122,179.901L55.067,176.866L55.122,179.901Z" style="fill:rgb(245,164,60);fill-rule:nonzero;"/>
                <path d="M78.348,192.767L55.122,179.901L55.068,176.866L78.294,189.729L78.348,192.767Z" style="fill:rgb(210,210,210);fill-rule:nonzero;"/>
                <path d="M78.348,192.767L78.294,189.729L78.348,192.767Z" style="fill:rgb(212,212,212);fill-rule:nonzero;"/>
                <path d="M78.348,192.767L78.294,189.729L109.969,170.702L110.022,173.737L78.348,192.767Z" style="fill:rgb(229,229,229);fill-rule:nonzero;"/>
                <path d="M107.423,171.287L107.422,171.287L110.352,169.525L110.574,169.394L107.423,171.287Z" style="fill:rgb(207,237,241);fill-rule:nonzero;"/>
                <path d="M103.78,173.477L103.779,173.476L107.422,171.287L107.423,171.287L103.78,173.477Z" style="fill:url(#_Linear12);"/>
                <path d="M78.278,188.803L103.779,173.476L103.78,173.477L78.278,188.803Z" style="fill:rgb(242,213,119);fill-rule:nonzero;"/>
                <path d="M78.278,188.803L54.871,175.839L78.274,188.571L110.352,169.525L107.422,171.287L103.779,173.476L78.278,188.803Z" style="fill:url(#_Linear13);"/>
                <path d="M78.294,189.728L78.122,188.837L54.849,175.826L54.871,175.839L78.278,188.803L78.294,189.728Z" style="fill:rgb(222,174,3);fill-rule:nonzero;"/>
                <path d="M78.294,189.729L78.294,189.728L78.278,188.803L103.78,173.477L107.423,171.287L110.574,169.394L78.42,188.853L78.294,189.729Z" style="fill:rgb(255,214,93);fill-rule:nonzero;"/>
            </g>
        </g>
    </g>
    <defs>
        <linearGradient id="_Linear1" x1="0" y1="0" x2="1" y2="0" gradientUnits="userSpaceOnUse" gradientTransform="matrix(-19.6064,-33.9584,33.9584,-19.6064,96.3027,203.727)"><stop offset="0" style="stop-color:rgb(172,0,93);stop-opacity:1"/><stop offset="0.1" style="stop-color:rgb(181,0,104);stop-opacity:1"/><stop offset="1" style="stop-color:rgb(181,0,91);stop-opacity:1"/></linearGradient>
        <linearGradient id="_Linear2" x1="0" y1="0" x2="1" y2="0" gradientUnits="userSpaceOnUse" gradientTransform="matrix(-15.7388,27.2596,27.2596,15.7388,70.8984,215.567)"><stop offset="0" style="stop-color:rgb(102,21,68);stop-opacity:1"/><stop offset="1" style="stop-color:rgb(128,17,80);stop-opacity:1"/></linearGradient>
        <linearGradient id="_Linear3" x1="0" y1="0" x2="1" y2="0" gradientUnits="userSpaceOnUse" gradientTransform="matrix(-15.7388,27.2596,27.2596,15.7388,70.8984,215.567)"><stop offset="0" style="stop-color:rgb(101,22,67);stop-opacity:1"/><stop offset="1" style="stop-color:rgb(127,17,79);stop-opacity:1"/></linearGradient>
        <linearGradient id="_Linear4" x1="0" y1="0" x2="1" y2="0" gradientUnits="userSpaceOnUse" gradientTransform="matrix(-15.7388,27.2596,27.2596,15.7388,70.8984,215.567)"><stop offset="0" style="stop-color:rgb(100,22,67);stop-opacity:1"/><stop offset="1" style="stop-color:rgb(127,17,79);stop-opacity:1"/></linearGradient>
        <linearGradient id="_Linear5" x1="0" y1="0" x2="1" y2="0" gradientUnits="userSpaceOnUse" gradientTransform="matrix(-4.91895,-8.51961,8.51961,-4.91895,87.3315,208.885)"><stop offset="0" style="stop-color:rgb(216,151,29);stop-opacity:1"/><stop offset="1" style="stop-color:rgb(244,167,23);stop-opacity:1"/></linearGradient>
        <linearGradient id="_Linear6" x1="0" y1="0" x2="1" y2="0" gradientUnits="userSpaceOnUse" gradientTransform="matrix(-4.91846,-8.51877,8.51877,-4.91846,116.981,191.788)"><stop offset="0" style="stop-color:rgb(216,151,29);stop-opacity:1"/><stop offset="1" style="stop-color:rgb(244,167,23);stop-opacity:1"/></linearGradient>
        <linearGradient id="_Linear7" x1="0" y1="0" x2="1" y2="0" gradientUnits="userSpaceOnUse" gradientTransform="matrix(-19.6064,-33.9584,33.9584,-19.6064,96.3027,203.727)"><stop offset="0" style="stop-color:rgb(194,0,117);stop-opacity:1"/><stop offset="0.1" style="stop-color:rgb(201,0,131);stop-opacity:1"/><stop offset="0.3" style="stop-color:rgb(201,0,104);stop-opacity:1"/><stop offset="1" style="stop-color:rgb(201,0,114);stop-opacity:1"/></linearGradient>
        <linearGradient id="_Linear8" x1="0" y1="0" x2="1" y2="0" gradientUnits="userSpaceOnUse" gradientTransform="matrix(-19.6064,-33.9584,33.9584,-19.6064,96.3027,203.727)"><stop offset="0" style="stop-color:rgb(194,0,117);stop-opacity:1"/><stop offset="0.1" style="stop-color:rgb(201,0,131);stop-opacity:1"/><stop offset="0.3" style="stop-color:rgb(201,0,104);stop-opacity:1"/><stop offset="1" style="stop-color:rgb(201,0,114);stop-opacity:1"/></linearGradient>
        <linearGradient id="_Linear9" x1="0" y1="0" x2="1" y2="0" gradientUnits="userSpaceOnUse" gradientTransform="matrix(-4.91895,-8.51961,8.51961,-4.91895,87.3315,208.885)"><stop offset="0" style="stop-color:rgb(227,179,38);stop-opacity:1"/><stop offset="1" style="stop-color:rgb(247,190,30);stop-opacity:1"/></linearGradient>
        <linearGradient id="_Linear10" x1="0" y1="0" x2="1" y2="0" gradientUnits="userSpaceOnUse" gradientTransform="matrix(-4.91846,-8.51877,8.51877,-4.91846,116.981,191.788)"><stop offset="0" style="stop-color:rgb(227,179,38);stop-opacity:1"/><stop offset="1" style="stop-color:rgb(247,190,30);stop-opacity:1"/></linearGradient>
        <linearGradient id="_Linear11" x1="0" y1="0" x2="1" y2="0" gradientUnits="userSpaceOnUse" gradientTransform="matrix(57.4177,-1.0165,1.0165,57.4177,53.1992,172.865)"><stop offset="0" style="stop-color:rgb(226,167,79);stop-opacity:1"/><stop offset="1" style="stop-color:rgb(253,181,66);stop-opacity:1"/></linearGradient>
        <linearGradient id="_Linear12" x1="0" y1="0" x2="1" y2="0" gradientUnits="userSpaceOnUse" gradientTransform="matrix(-19.6064,-33.9584,33.9584,-19.6064,96.3027,203.727)"><stop offset="0" style="stop-color:rgb(215,0,140);stop-opacity:1"/><stop offset="0.1" style="stop-color:rgb(220,0,157);stop-opacity:1"/><stop offset="0.3" style="stop-color:rgb(220,0,125);stop-opacity:1"/><stop offset="1" style="stop-color:rgb(220,0,137);stop-opacity:1"/></linearGradient>
        <linearGradient id="_Linear13" x1="0" y1="0" x2="1" y2="0" gradientUnits="userSpaceOnUse" gradientTransform="matrix(57.4177,-1.0165,1.0165,57.4177,53.1992,172.865)"><stop offset="0" style="stop-color:rgb(242,213,119);stop-opacity:1"/><stop offset="1" style="stop-color:rgb(255,220,101);stop-opacity:1"/></linearGradient>
    </defs>
</svg>
